<?xml version="1.0" standalone="no"?>
<!DOCTYPE svg PUBLIC "-//W3C//DTD SVG 20010904//EN"
 "http://www.w3.org/TR/2001/REC-SVG-20010904/DTD/svg10.dtd">
<svg version="1.0" xmlns="http://www.w3.org/2000/svg"
 width="400.000000pt" height="400.000000pt" viewBox="0 0 400.000000 400.000000"
 preserveAspectRatio="xMidYMid meet">
<metadata>
Created by potrace 1.14, written by Peter Selinger 2001-2017
</metadata>
<g transform="translate(0.000000,400.000000) scale(0.100000,-0.100000)"
fill="#000000" stroke="none">
<path d="M1947 3834 c-1 -1 -31 -5 -67 -8 -97 -9 -105 -11 -110 -17 -5 -6 -86
-30 -107 -31 -7 -1 -13 -6 -13 -11 0 -5 -7 -7 -15 -3 -8 3 -15 1 -15 -5 0 -6
-8 -8 -17 -5 -10 4 -14 4 -10 0 10 -10 -72 -55 -86 -47 -7 3 -9 3 -5 -2 5 -5
-13 -23 -40 -40 -46 -32 -96 -80 -77 -73 22 6 154 -25 148 -36 -4 -7 -1 -6 7
1 14 13 43 6 34 -8 -3 -5 2 -6 11 -3 18 7 146 -16 140 -26 -2 -3 8 -5 23 -5
15 1 32 -3 38 -7 7 -5 16 -8 20 -7 19 4 73 -14 68 -22 -3 -5 3 -8 13 -7 39 3
74 -2 69 -11 -3 -5 0 -9 7 -8 37 1 68 -4 64 -10 -3 -5 9 -9 25 -10 17 -1 36
-8 44 -14 8 -6 14 -9 14 -6 0 3 26 -3 58 -14 61 -22 79 -27 100 -28 7 -1 10
-6 6 -13 -4 -6 -3 -8 3 -5 14 9 85 -12 78 -23 -3 -6 0 -7 8 -4 7 2 27 -1 43
-7 32 -14 39 -16 55 -18 5 0 7 -6 3 -13 -4 -7 -3 -8 5 -4 14 9 53 -3 46 -14
-3 -5 0 -12 6 -16 8 -4 9 -3 5 4 -11 17 10 15 52 -7 20 -10 39 -19 42 -18 14
1 80 -26 76 -31 -2 -4 8 -8 22 -9 15 0 28 -6 30 -12 2 -6 7 -9 12 -6 5 3 16
-3 26 -12 10 -10 19 -16 20 -13 1 3 27 -6 58 -19 30 -14 52 -29 49 -34 -3 -6
-1 -7 5 -3 9 5 78 -25 213 -94 16 -9 26 -20 22 -25 -4 -4 -3 -5 4 -2 12 8 96
-36 87 -45 -3 -3 3 -5 13 -4 10 0 17 -4 16 -11 -2 -7 3 -10 10 -7 13 5 136
-69 149 -90 4 -6 8 -8 8 -3 0 4 11 0 25 -9 14 -9 22 -21 18 -27 -3 -6 -1 -7 6
-3 6 4 23 -2 37 -13 15 -12 30 -21 34 -21 4 0 1 33 -7 73 -8 39 -15 82 -16 94
-1 13 -6 23 -11 23 -4 0 -6 9 -3 20 3 10 2 18 -2 17 -3 -1 -7 1 -8 6 -2 4 -14
29 -27 56 -14 27 -22 51 -19 55 4 3 1 6 -6 6 -7 0 -10 4 -7 9 3 5 -1 11 -9 15
-8 3 -15 12 -15 21 0 8 -3 15 -7 15 -5 0 -19 17 -33 38 -14 20 -35 48 -47 61
-12 14 -20 28 -17 33 3 5 1 7 -4 6 -5 -2 -34 20 -64 47 -29 28 -66 56 -81 64
-15 8 -27 18 -27 23 0 4 -6 8 -13 8 -7 0 -23 9 -35 20 -12 12 -22 18 -22 15 0
-3 -9 -1 -20 5 -11 6 -18 15 -16 19 3 4 -5 6 -18 4 -12 -3 -29 2 -37 9 -8 8
-19 13 -26 11 -6 -2 -14 1 -18 6 -3 6 -17 11 -31 11 -13 0 -24 3 -24 8 0 4
-17 8 -37 10 -20 1 -39 6 -43 10 -3 4 -38 9 -79 10 -48 3 -79 9 -89 19 -8 8
-25 21 -38 30 -13 8 -21 20 -17 26 3 5 1 7 -5 3 -6 -3 -17 1 -25 9 -9 8 -20
15 -26 15 -6 0 -11 5 -11 10 0 6 -6 10 -14 10 -8 0 -16 3 -18 8 -1 4 -25 18
-53 32 -27 13 -53 28 -56 33 -3 5 -10 8 -15 7 -17 -3 -94 23 -94 31 0 5 -7 5
-17 2 -9 -4 -14 -2 -11 3 4 5 -8 9 -25 10 -18 0 -54 4 -82 8 -47 7 -183 14
-188 10z"/>
<path d="M1120 3533 c0 -4 -13 -9 -30 -10 -57 -4 -70 -7 -70 -16 0 -5 -6 -7
-14 -4 -8 3 -17 -1 -20 -10 -4 -9 -9 -13 -12 -10 -3 3 -28 -8 -56 -24 -27 -16
-54 -27 -59 -23 -5 3 -8 0 -7 -8 2 -7 -5 -12 -14 -12 -10 1 -15 -2 -13 -7 6
-9 -35 -35 -48 -31 -5 1 -6 -2 -3 -7 11 -16 -14 -23 -32 -9 -15 12 -16 11 -3
-4 11 -15 9 -21 -19 -45 -18 -16 -36 -30 -40 -33 -3 -3 -10 -13 -13 -24 -4
-10 -13 -16 -22 -13 -8 4 -12 1 -9 -6 4 -10 -7 -26 -56 -84 -5 -7 -10 -17 -10
-23 0 -5 -5 -10 -10 -10 -6 0 -9 -3 -8 -7 1 -5 -10 -30 -24 -58 -28 -55 -64
-155 -60 -169 2 -5 -5 -5 -15 -2 -14 5 -15 4 -7 -4 9 -9 9 -25 -1 -65 -7 -31
-8 -59 -3 -68 4 -9 9 -34 11 -55 1 -22 6 -38 11 -34 5 3 7 -7 4 -21 -3 -15 -2
-24 2 -22 5 3 11 -3 14 -12 4 -9 1 -20 -6 -25 -9 -5 -8 -8 6 -8 11 0 16 -3 13
-7 -4 -3 -2 -12 3 -19 6 -6 12 -21 15 -32 2 -11 12 -39 23 -63 11 -24 21 -51
24 -59 3 -8 12 5 23 32 10 27 22 45 28 41 6 -3 7 -1 3 6 -4 6 0 24 10 39 10
15 27 43 38 62 10 19 24 38 30 42 6 4 11 11 11 15 1 20 27 53 37 47 6 -4 8 -3
5 3 -4 6 6 25 22 42 16 17 26 31 23 31 -4 0 4 7 16 16 12 8 20 19 17 24 -5 8
23 25 37 22 4 -1 5 5 2 13 -4 9 0 15 9 15 9 0 18 9 22 20 3 11 9 19 13 17 4
-1 22 13 39 30 22 22 38 31 50 27 14 -4 15 -3 4 4 -10 7 -2 18 34 46 26 19 52
33 58 29 5 -3 7 -1 3 5 -5 9 58 57 77 57 4 0 12 6 16 14 5 8 16 11 25 8 9 -4
15 -1 13 6 -1 7 6 11 15 11 10 -1 16 3 15 9 -1 6 4 11 11 12 7 0 17 6 21 14 5
7 15 11 22 9 8 -3 20 3 29 13 8 10 24 19 35 21 11 2 22 5 25 8 13 13 63 30 72
24 6 -4 8 -2 4 4 -5 9 78 46 109 47 6 1 19 6 30 12 18 9 56 21 77 23 4 0 26 7
48 15 22 8 43 14 45 14 3 0 31 5 62 11 58 12 58 24 0 36 -12 2 -37 7 -54 10
-18 3 -31 10 -28 14 2 4 -7 5 -22 2 -15 -3 -24 -1 -20 5 3 5 -2 9 -11 9 -46 0
-73 5 -68 12 2 4 -11 7 -30 6 -19 -1 -34 2 -34 8 0 5 -4 7 -8 4 -5 -3 -24 -1
-43 3 -19 5 -79 17 -134 27 -55 10 -102 20 -105 23 -3 3 -25 6 -50 7 -49 1
-94 9 -110 19 -5 3 -10 3 -10 -2z"/>
<path d="M1629 3483 c-13 -16 -12 -17 4 -4 9 7 17 15 17 17 0 8 -8 3 -21 -13z"/>
<path d="M2096 3282 c-2 -4 -22 -9 -43 -10 -49 -3 -71 -7 -77 -13 -2 -2 29
-26 69 -53 41 -27 71 -54 68 -59 -3 -6 -1 -7 5 -3 7 4 12 2 12 -4 0 -6 4 -9 8
-6 5 3 20 -6 35 -20 14 -13 31 -24 38 -24 6 0 9 -7 6 -14 -4 -9 -1 -13 6 -10
7 2 24 -6 38 -18 15 -13 47 -40 73 -62 26 -22 43 -43 39 -50 -3 -6 -3 -8 2 -4
10 9 47 -10 40 -21 -3 -5 6 -12 20 -15 14 -4 25 -10 25 -15 0 -5 27 -36 60
-68 36 -34 58 -64 55 -72 -5 -12 -3 -12 12 0 10 7 15 10 11 5 -4 -5 0 -15 8
-23 8 -8 11 -19 8 -25 -4 -6 -3 -8 3 -5 11 7 100 -92 96 -105 -2 -5 1 -8 6 -8
17 0 153 -199 145 -212 -4 -7 -4 -10 1 -6 11 11 38 -29 29 -44 -5 -7 -3 -8 6
-3 10 6 12 4 7 -8 -4 -10 -2 -16 6 -14 7 1 11 -6 11 -15 -1 -10 1 -16 5 -13
13 7 72 -122 65 -142 -5 -15 -4 -15 5 -3 9 13 11 13 12 0 1 -8 1 -18 0 -22 0
-5 4 -8 10 -8 5 0 7 -4 4 -10 -3 -5 -1 -10 4 -10 6 0 10 -3 9 -7 -1 -5 6 -26
15 -47 10 -22 15 -46 12 -53 -2 -8 -1 -11 4 -8 8 4 38 -76 45 -120 1 -5 4 -14
7 -20 5 -8 14 -36 24 -75 0 -3 7 -35 15 -73 7 -37 17 -64 20 -60 4 5 13 28 20
53 8 25 14 47 15 50 1 3 5 24 10 48 4 23 10 42 14 42 3 0 7 12 7 28 2 26 11
87 14 87 2 0 6 20 20 108 7 40 18 75 24 79 7 5 6 8 -4 8 -13 0 -13 1 0 10 8 5
10 10 4 10 -7 0 -9 10 -6 25 2 15 9 22 16 18 8 -5 8 -3 0 8 -5 8 -9 25 -8 39
2 14 6 61 9 105 3 44 7 91 8 105 2 14 -1 31 -6 38 -5 6 -6 12 -1 12 5 0 9 16
9 35 0 19 -3 35 -7 35 -11 0 -5 23 7 32 6 5 4 8 -5 8 -13 0 -13 1 0 10 10 6
11 10 3 10 -7 0 -13 10 -12 23 0 41 -8 107 -15 114 -3 3 -6 15 -6 25 0 10 -15
27 -32 38 -18 11 -32 22 -30 26 2 3 0 9 -4 12 -4 4 -4 1 0 -5 4 -7 5 -13 3
-13 -2 0 -52 27 -111 60 -59 33 -112 60 -118 60 -5 0 -6 4 -3 10 3 5 0 7 -8 4
-8 -3 -23 3 -32 13 -10 10 -21 17 -24 16 -11 -5 -41 8 -41 18 0 5 -3 8 -7 8
-5 -1 -10 0 -13 1 -3 1 -13 3 -22 5 -10 2 -31 13 -48 25 -16 12 -30 19 -30 16
0 -3 -26 6 -57 20 -32 14 -83 35 -113 46 -30 11 -59 24 -64 29 -6 5 -15 9 -22
9 -6 0 -29 8 -50 17 -22 9 -48 18 -58 20 -11 2 -24 7 -30 12 -6 4 -32 14 -58
22 -26 7 -45 16 -43 19 4 6 -4 8 -92 14 -34 2 -67 7 -72 10 -5 4 -12 3 -15 -2z"/>
<path d="M1790 3230 c-16 -9 -72 -21 -107 -24 -12 0 -19 -3 -17 -6 8 -7 -97
-40 -107 -34 -5 3 -9 0 -9 -6 0 -7 -7 -9 -16 -6 -8 3 -13 2 -10 -3 9 -14 -31
-20 -44 -7 -8 8 -10 7 -5 -5 5 -12 -4 -21 -34 -33 -23 -9 -44 -16 -47 -15 -4
0 -10 -3 -13 -8 -12 -16 -52 -34 -63 -27 -6 4 -8 3 -5 -3 4 -6 0 -14 -9 -17
-22 -9 -26 -8 -18 6 4 7 3 8 -5 4 -6 -4 -9 -11 -6 -15 2 -5 -23 -26 -58 -47
-69 -43 -67 -41 -122 -89 -22 -19 -45 -35 -51 -35 -7 0 -15 -7 -18 -16 -5 -13
-9 -14 -20 -5 -11 9 -16 9 -22 0 -4 -8 -3 -9 4 -5 7 4 12 1 12 -8 0 -18 -40
-47 -53 -39 -6 3 -7 1 -3 -5 6 -11 -20 -45 -91 -119 -13 -13 -23 -26 -23 -28
0 -5 -49 -77 -57 -85 -3 -3 -3 2 2 10 5 9 5 12 -1 7 -5 -5 -9 -12 -10 -15 -2
-15 -18 -48 -35 -73 -10 -14 -16 -29 -12 -33 3 -3 2 -6 -3 -6 -6 0 -16 -17
-24 -37 -17 -47 -16 -43 -25 -70 -4 -13 -11 -21 -15 -18 -5 3 -12 0 -16 -6 -4
-8 -3 -9 4 -5 7 4 12 1 12 -9 0 -9 -3 -14 -8 -11 -14 8 -7 -59 7 -70 9 -7 11
-16 6 -25 -5 -8 -5 -11 0 -7 4 4 17 -9 28 -30 10 -20 40 -68 64 -105 43 -65
45 -69 27 -83 -18 -14 -18 -14 3 -4 20 9 25 6 46 -27 14 -21 38 -54 56 -73
l31 -35 0 38 c0 20 3 37 8 37 4 0 8 19 8 43 2 54 35 167 48 160 5 -3 6 -1 2 6
-9 14 3 53 14 46 5 -3 12 0 16 6 4 8 3 9 -4 5 -7 -4 -12 -3 -12 3 0 16 62 135
74 143 7 5 7 8 1 8 -5 0 -1 7 9 15 11 8 16 15 12 15 -4 0 1 14 11 30 9 17 20
30 24 30 4 0 9 9 12 21 4 13 10 18 18 13 8 -4 10 -3 5 5 -10 15 92 133 107
124 5 -3 7 -1 4 4 -8 13 27 46 37 36 4 -4 5 -1 2 7 -6 17 126 126 149 124 8
-1 13 2 10 6 -2 4 8 13 23 21 15 8 29 17 32 20 13 16 163 80 176 75 9 -3 12
-1 9 4 -3 6 2 11 12 12 32 2 38 3 48 10 15 9 75 21 113 23 17 1 35 5 39 8 3 4
13 1 21 -6 13 -9 14 -9 8 1 -9 16 107 19 249 7 l50 -5 -35 31 c-19 17 -47 41
-63 55 -15 13 -32 24 -37 24 -5 0 -14 8 -19 18 -6 9 -11 13 -11 9 0 -4 -6 -2
-14 5 -8 7 -12 16 -10 19 2 3 -3 6 -10 6 -14 0 -109 62 -114 75 -2 4 -8 6 -13
2 -5 -3 -9 -1 -9 4 0 5 -9 12 -21 15 -12 3 -18 10 -14 16 3 6 0 9 -8 5 -8 -3
-22 2 -31 11 -9 9 -16 13 -16 8 0 -4 -4 -3 -8 4 -4 7 -13 8 -22 3z"/>
<path d="M3410 3201 c0 -6 4 -13 10 -16 6 -3 7 1 4 9 -7 18 -14 21 -14 7z"/>
<path d="M3075 3000 c-3 -5 -1 -10 4 -10 6 0 11 5 11 10 0 6 -2 10 -4 10 -3 0
-8 -4 -11 -10z"/>
<path d="M2037 2839 c11 -14 6 -15 -45 -14 -31 1 -61 -1 -67 -4 -5 -3 -14 -6
-19 -6 -5 0 -10 -8 -12 -17 -1 -10 3 -15 11 -12 16 6 160 -52 180 -73 8 -8 15
-12 15 -8 0 7 58 -23 87 -45 12 -10 19 -20 15 -24 -3 -4 1 -4 11 0 10 3 17 1
17 -5 0 -6 6 -11 13 -11 29 -1 200 -167 193 -187 -3 -8 1 -10 11 -6 11 4 14 2
9 -5 -4 -7 -3 -12 3 -12 6 0 15 -10 22 -21 9 -17 8 -24 -2 -31 -11 -8 -10 -9
3 -4 18 5 43 -25 31 -38 -3 -3 -2 -6 4 -6 14 0 56 -117 47 -132 -5 -7 -3 -8 6
-3 10 6 12 1 8 -19 -3 -14 -2 -26 1 -26 14 0 21 -173 7 -182 -7 -5 -6 -8 3 -8
10 0 10 -6 -4 -26 -9 -15 -12 -23 -6 -20 6 4 11 0 11 -8 0 -9 -5 -16 -12 -16
-9 0 -9 -3 -1 -11 10 -10 3 -63 -14 -109 -3 -8 -8 -24 -10 -34 -2 -11 -8 -25
-13 -31 -5 -7 -7 -14 -4 -18 3 -3 -2 -17 -11 -31 -10 -14 -15 -26 -11 -26 3 0
-10 -34 -29 -75 -18 -41 -32 -75 -29 -75 3 0 24 9 48 19 23 11 48 21 56 23 8
2 21 9 28 16 7 6 20 12 28 12 8 0 14 4 14 9 0 5 14 14 31 21 17 7 58 31 91 52
48 31 63 37 70 26 7 -10 8 -8 6 5 -2 11 8 24 27 35 16 9 34 22 40 28 5 6 30
26 55 45 72 54 70 49 49 110 -11 30 -17 60 -14 67 3 7 1 11 -3 8 -9 -5 -88
181 -86 201 1 7 -2 11 -6 8 -4 -2 -18 17 -32 43 -32 62 -45 82 -95 160 -24 35
-40 68 -37 73 3 5 0 8 -8 7 -7 -2 -12 3 -10 10 1 6 -3 12 -9 12 -5 0 -7 5 -3
12 4 6 3 8 -3 5 -6 -4 -18 4 -27 18 -19 29 -20 39 -4 29 7 -4 8 -3 4 5 -4 6
-11 9 -16 6 -4 -3 -21 11 -36 30 -16 19 -55 63 -86 97 -31 34 -54 66 -51 72 3
5 1 6 -5 2 -6 -3 -19 5 -30 19 -11 14 -24 25 -29 23 -7 -1 -43 8 -113 29 -8 2
-17 4 -19 3 -2 -1 -8 4 -12 12 -5 7 -9 8 -9 2 0 -6 -13 -9 -30 -6 -19 3 -27 8
-23 16 4 6 -1 5 -10 -3 -9 -7 -17 -10 -17 -5 0 5 -27 10 -60 10 -34 1 -68 7
-77 15 -16 12 -17 12 -6 -2z"/>
<path d="M896 2747 c3 -10 9 -15 12 -12 3 3 0 11 -7 18 -10 9 -11 8 -5 -6z"/>
<path d="M1636 2739 c2 -3 -8 -11 -21 -17 -19 -9 -25 -9 -26 1 0 6 -3 5 -7 -4
-4 -10 -43 -41 -87 -70 -44 -29 -97 -71 -118 -92 -21 -21 -43 -35 -49 -31 -7
5 -8 3 -3 -5 4 -8 -4 -25 -22 -44 -16 -18 -45 -52 -63 -77 -19 -25 -37 -47
-40 -50 -3 -3 -11 -18 -18 -33 -7 -17 -17 -25 -24 -21 -6 4 -8 3 -5 -4 9 -14
-3 -43 -14 -36 -5 3 -6 -2 -3 -10 4 -10 1 -16 -7 -16 -7 0 -9 -3 -6 -6 4 -4 0
-19 -7 -33 -25 -48 -46 -102 -46 -116 0 -8 -5 -15 -11 -15 -5 0 -8 -4 -5 -9 4
-5 1 -22 -5 -38 -7 -15 -13 -35 -14 -43 -2 -8 -6 -33 -10 -55 -12 -71 -13
-209 -2 -230 6 -11 10 -23 9 -27 -1 -5 4 -7 11 -5 6 1 11 -6 10 -16 0 -10 2
-16 5 -13 7 8 157 -136 154 -147 -1 -5 2 -6 7 -3 12 8 103 -38 94 -48 -4 -4 0
-4 10 0 10 3 17 1 17 -6 0 -6 4 -9 9 -6 5 4 17 3 26 0 12 -5 13 -9 4 -14 -8
-5 -3 -8 12 -8 13 0 31 -2 39 -5 8 -2 30 -8 47 -12 18 -4 31 -11 28 -15 -2 -3
5 -6 16 -5 11 1 48 -4 82 -12 34 -7 81 -13 104 -13 23 0 45 -5 48 -10 5 -8 11
-7 21 1 9 7 14 8 14 1 0 -6 8 -9 18 -7 9 2 17 4 17 5 0 0 41 3 90 5 50 3 101
7 115 9 14 2 45 7 70 11 25 4 64 14 88 22 23 7 47 11 52 8 6 -3 10 -1 10 6 0
7 10 9 25 6 14 -2 24 -2 21 0 -3 3 9 30 26 60 17 29 28 56 25 59 -3 3 -21 -2
-41 -11 -19 -9 -40 -13 -47 -9 -7 4 -9 3 -6 -3 8 -12 -50 -26 -66 -16 -6 3 -7
1 -3 -5 4 -7 -11 -13 -41 -17 -27 -4 -58 -8 -70 -10 -13 -2 -23 2 -23 8 0 7
-4 6 -10 -3 -9 -13 -11 -13 -20 0 -6 10 -10 11 -10 3 0 -7 -7 -13 -15 -13 -8
0 -15 6 -15 13 0 8 -4 7 -10 -3 -5 -8 -10 -10 -10 -5 0 6 -12 10 -27 9 -16 -1
-34 4 -42 10 -11 8 -13 8 -8 -1 9 -14 -64 6 -75 21 -3 5 -18 10 -32 12 -14 1
-38 10 -53 18 -15 9 -36 18 -45 22 -10 3 -18 10 -18 15 0 5 -6 9 -13 9 -31 0
-194 171 -181 191 3 5 0 9 -6 9 -6 0 -8 5 -5 10 3 6 2 10 -4 10 -13 0 -34 67
-25 81 4 7 3 9 -4 5 -6 -3 -13 7 -18 26 -4 18 -9 40 -11 48 -8 33 -3 191 6
208 6 11 12 32 15 48 3 16 10 30 16 32 5 2 8 8 4 13 -3 5 -1 9 4 9 5 0 9 6 9
14 0 23 44 87 55 80 6 -4 8 -2 5 3 -9 14 52 84 66 76 5 -3 7 -2 4 4 -8 13 64
65 134 96 83 38 128 50 186 51 22 1 39 5 36 10 -3 5 37 7 90 4 53 -2 93 0 90
5 -3 4 -7 6 -10 3 -4 -3 -14 4 -24 16 -11 11 -19 18 -19 15 0 -3 -31 9 -69 28
-37 19 -80 37 -95 41 -14 3 -24 9 -22 13 2 3 -10 7 -27 7 -17 1 -33 6 -35 13
-2 6 -7 9 -12 6 -4 -3 -27 2 -51 10 -40 14 -121 17 -113 4z"/>
<path d="M3417 2663 c2 -21 5 -43 8 -50 2 -7 0 -15 -6 -19 -6 -3 -6 -10 -1
-17 14 -18 12 -207 -2 -207 -7 0 -7 -3 -1 -8 14 -10 17 -32 4 -32 -8 0 -9 -4
0 -13 6 -8 8 -17 4 -21 -6 -6 -9 -42 -12 -139 -1 -22 -5 -36 -11 -32 -6 3 -7
-1 -4 -10 4 -8 0 -23 -7 -32 -10 -12 -10 -15 -1 -9 10 6 11 -2 6 -36 -3 -24
-8 -50 -11 -58 -4 -8 -5 -23 -4 -34 2 -10 -1 -16 -6 -13 -5 3 -7 -10 -5 -29 2
-19 0 -34 -4 -34 -5 0 -10 -12 -10 -27 -2 -30 -2 -31 -33 -148 -12 -44 -24
-89 -26 -100 -13 -54 -52 -164 -57 -159 -3 3 -6 -1 -5 -8 1 -30 -3 -49 -10
-45 -5 3 -9 -9 -9 -26 -1 -17 -6 -33 -12 -35 -6 -2 -8 -10 -5 -19 4 -10 2 -14
-4 -10 -6 4 -10 1 -10 -6 3 -28 -24 -97 -35 -91 -6 4 -8 3 -5 -3 9 -15 -44
-143 -56 -136 -6 3 -8 2 -4 -3 3 -5 -2 -25 -11 -44 -8 -19 -16 -37 -17 -40
-22 -57 -28 -70 -37 -70 -5 0 -7 -4 -3 -9 3 -6 -2 -14 -11 -19 -9 -5 -15 -12
-15 -15 3 -21 0 -27 -11 -21 -7 4 -8 3 -4 -4 7 -12 -38 -100 -59 -114 -5 -4
-6 -8 -2 -8 4 0 -6 -20 -23 -44 -16 -25 -30 -47 -30 -50 0 -18 -74 -115 -84
-109 -6 3 -8 3 -4 -2 4 -4 -1 -23 -12 -40 l-20 -33 71 14 c40 7 81 17 93 21
11 4 26 7 31 8 6 0 41 15 78 33 38 18 74 34 80 35 7 1 14 5 17 8 3 4 41 33 85
66 44 33 86 67 94 76 11 14 17 15 30 5 14 -11 14 -11 4 2 -10 13 -5 24 28 60
22 25 47 57 55 72 8 16 19 28 25 28 6 0 8 4 5 9 -3 5 2 19 12 32 10 13 23 37
30 52 8 18 17 26 25 21 9 -5 9 -4 0 6 -14 15 -6 43 10 33 5 -3 7 -2 4 4 -8 12
17 96 25 87 4 -3 4 3 1 15 -3 12 -1 21 5 21 6 0 8 10 4 22 -3 11 -1 19 4 16 5
-4 10 30 12 74 3 89 4 92 49 141 17 19 29 38 25 43 -4 4 1 4 11 1 11 -4 16 -3
12 3 -9 14 26 70 39 63 6 -3 8 -3 4 1 -4 5 2 24 12 44 34 67 70 154 70 171 0
10 3 12 8 4 4 -6 8 12 8 40 1 28 6 53 11 54 6 2 8 15 5 30 -3 14 -1 23 4 20 5
-3 8 19 7 49 -1 35 3 54 10 54 7 0 5 5 -3 10 -13 9 -13 11 0 20 8 5 10 10 4
10 -6 0 -11 17 -12 38 -2 47 -12 132 -18 154 -3 9 -7 27 -10 40 -7 32 -9 39
-22 69 -6 15 -12 35 -14 45 -2 11 -9 25 -16 32 -7 8 -10 17 -7 22 3 5 1 10 -4
12 -5 1 -11 9 -13 17 -5 22 -63 87 -112 124 -15 12 -39 32 -52 45 -13 13 -24
20 -24 17 0 -3 -24 12 -53 35 -30 22 -58 40 -64 40 -6 0 -9 -16 -6 -37z"/>
<path d="M329 2528 c-18 -29 -36 -55 -40 -58 -3 -3 -9 -15 -13 -28 -4 -12 -11
-20 -16 -17 -4 3 -7 -1 -7 -8 2 -19 -37 -117 -46 -117 -4 0 -5 -4 -2 -10 3 -5
3 -15 -1 -22 -4 -7 -9 -28 -11 -48 -2 -19 -8 -36 -12 -38 -4 -1 -6 -14 -3 -29
3 -14 1 -23 -4 -20 -5 3 -8 -33 -8 -81 1 -55 -3 -90 -10 -94 -8 -6 -8 -8 1 -8
6 0 12 -12 11 -27 0 -16 3 -44 8 -63 4 -19 8 -47 8 -62 1 -16 4 -28 9 -28 4 0
7 -7 7 -15 0 -9 9 -40 19 -70 11 -30 17 -55 15 -55 -3 0 2 -7 10 -16 9 -8 14
-20 11 -25 -4 -5 -1 -9 4 -9 6 0 11 -4 11 -9 0 -6 14 -30 30 -54 17 -25 30
-48 30 -52 0 -3 6 -13 14 -21 8 -7 24 -26 35 -40 11 -14 26 -27 33 -28 7 -1
38 -11 68 -21 30 -11 58 -18 63 -17 4 1 7 -3 7 -9 0 -5 4 -8 9 -5 5 4 22 1 38
-5 15 -7 33 -13 38 -13 22 -3 81 -19 90 -25 12 -7 18 -8 46 -10 11 0 18 -5 15
-9 -3 -5 3 -8 12 -8 49 0 73 -5 67 -13 -3 -6 6 -8 20 -5 14 2 25 1 25 -4 0 -5
10 -8 23 -8 14 1 21 -4 19 -13 -3 -12 0 -12 12 -2 9 7 21 9 28 5 7 -5 21 -7
32 -5 10 1 15 -2 12 -7 -3 -5 0 -10 7 -9 42 1 77 -4 73 -12 -3 -4 6 -6 21 -3
18 3 30 -1 40 -13 7 -11 13 -13 13 -7 0 7 5 12 11 12 5 0 7 -4 4 -10 -3 -5 0
-7 8 -4 8 3 35 0 58 -7 24 -6 63 -13 85 -15 23 -2 54 -8 69 -14 39 -15 50 -12
32 8 -10 10 -14 22 -10 26 4 4 0 4 -10 0 -9 -3 -17 -1 -17 4 0 6 -9 14 -21 17
-13 4 -18 12 -15 21 3 9 1 12 -5 9 -13 -9 -50 25 -42 38 3 5 1 7 -5 3 -14 -8
-74 43 -65 56 3 6 1 8 -4 5 -12 -8 -119 89 -115 104 1 6 -2 8 -6 5 -11 -7 -44
28 -37 37 3 4 2 5 -1 3 -10 -8 -93 77 -87 88 3 5 1 6 -5 2 -6 -3 -16 3 -22 14
-6 12 -16 18 -23 14 -7 -4 -9 -4 -5 1 4 4 -10 28 -32 53 -22 24 -37 49 -34 53
3 5 0 8 -8 7 -7 -2 -12 3 -10 10 1 8 -2 11 -7 7 -12 -7 -33 29 -23 40 4 5 2 5
-4 2 -7 -4 -24 12 -40 36 -16 23 -35 46 -41 50 -7 4 -13 15 -13 22 0 8 -5 15
-11 15 -6 0 -9 7 -5 15 3 8 0 14 -7 12 -7 -1 -11 6 -11 15 1 10 -2 16 -6 13
-11 -7 -42 43 -35 56 4 5 1 8 -5 7 -7 -2 -19 11 -29 27 -9 17 -27 45 -38 64
-12 19 -20 38 -18 42 3 4 -2 10 -11 13 -9 4 -14 13 -10 22 3 8 2 13 -3 10 -11
-7 -32 49 -23 60 4 4 2 4 -5 0 -10 -6 -27 21 -20 34 1 3 -7 19 -19 35 -26 38
-89 194 -88 217 1 10 -2 15 -7 13 -4 -3 -10 8 -14 25 -4 16 -10 30 -15 30 -4
0 -23 -24 -41 -52z"/>
<path d="M1275 2499 c-3 -4 2 -6 10 -5 21 3 28 13 10 13 -9 0 -18 -4 -20 -8z"/>
<path d="M1841 2448 c-24 -4 -49 -13 -57 -19 -8 -6 -14 -9 -14 -5 0 4 -11 -1
-25 -10 -14 -9 -25 -14 -25 -10 0 14 -113 -91 -153 -143 -18 -22 -18 -23 2
-38 12 -8 18 -19 15 -25 -4 -7 -2 -8 4 -4 12 7 70 -20 84 -39 4 -5 8 -7 8 -2
0 4 18 -2 40 -13 22 -11 40 -18 40 -14 0 4 6 2 13 -3 6 -5 39 -10 72 -12 33
-2 63 -5 68 -8 4 -2 7 0 7 6 0 5 11 8 25 7 15 -2 22 1 18 7 -4 6 0 8 11 4 9
-4 14 -3 11 2 -3 5 4 13 16 16 24 8 78 58 103 97 17 26 17 28 -15 76 -17 27
-45 57 -61 66 -16 10 -25 22 -22 28 4 6 2 8 -3 5 -6 -4 -23 0 -39 7 -16 8 -38
16 -49 18 -11 2 -22 6 -25 9 -3 3 -25 2 -49 -3z"/>
<path d="M2120 2451 c0 -5 15 -26 34 -45 41 -44 97 -157 99 -202 1 -18 5 -30
9 -28 15 9 13 -71 -2 -86 -9 -8 -11 -12 -6 -7 15 11 23 8 23 -8 0 -8 -5 -15
-11 -15 -7 0 -6 -3 1 -8 9 -6 9 -24 -3 -80 -18 -87 -50 -166 -64 -157 -5 3 -7
0 -5 -8 3 -7 -3 -22 -15 -32 -11 -10 -20 -25 -20 -33 0 -9 -6 -12 -17 -8 -10
4 -14 4 -11 0 10 -9 -41 -49 -98 -78 -63 -31 -125 -47 -194 -51 -69 -4 -69 -4
-47 -16 22 -13 71 -28 112 -36 17 -3 35 -9 41 -14 6 -5 16 -4 23 4 9 7 15 8
17 2 2 -6 21 -9 42 -7 20 2 58 5 84 5 25 1 44 5 42 8 -2 4 12 10 32 14 20 3
44 10 53 14 9 5 34 18 57 30 23 11 45 17 49 13 5 -4 5 -2 2 4 -5 9 19 28 31
24 1 0 16 15 32 33 34 39 51 77 57 127 2 19 7 39 11 45 4 5 7 46 7 90 0 59 4
83 15 93 13 10 12 11 -4 5 -12 -4 -17 -3 -13 4 3 5 -1 38 -9 73 -8 35 -12 70
-9 77 2 8 0 11 -5 8 -9 -5 -12 8 -9 31 0 4 -3 10 -8 13 -5 3 -20 26 -34 51
-13 25 -30 51 -37 58 -7 8 -9 18 -6 24 4 7 2 8 -5 4 -6 -4 -23 -1 -36 8 -13 9
-31 16 -40 16 -8 0 -15 5 -15 11 0 5 -3 8 -7 6 -5 -3 -19 0 -33 6 -14 5 -34
12 -45 13 -11 2 -30 6 -42 9 -13 3 -23 1 -23 -4z"/>
<path d="M475 2360 c-3 -5 -1 -10 4 -10 6 0 11 5 11 10 0 6 -2 10 -4 10 -3 0
-8 -4 -11 -10z"/>
<path d="M2116 2327 c3 -10 9 -15 12 -12 3 3 0 11 -7 18 -10 9 -11 8 -5 -6z"/>
<path d="M2215 2249 c-4 -6 -5 -12 -2 -15 2 -3 7 2 10 11 7 17 1 20 -8 4z"/>
<path d="M2141 2118 c-29 -30 -103 -78 -113 -72 -4 3 -8 1 -8 -5 0 -9 -69 -33
-87 -30 -4 1 -10 0 -13 -1 -22 -8 -46 -7 -52 3 -5 7 -8 8 -8 1 0 -16 -92 -5
-150 19 -14 5 -32 11 -40 13 -8 2 -16 8 -18 14 -2 5 -7 8 -12 5 -5 -3 -14 0
-22 7 -7 7 -20 14 -28 16 -7 2 -27 12 -42 24 -28 19 -30 19 -42 2 -7 -9 -11
-27 -9 -38 4 -21 4 -21 -11 -2 -9 11 -16 15 -16 10 0 -6 5 -15 12 -22 14 -14
18 -73 4 -65 -5 3 -6 1 -2 -5 9 -14 17 -48 21 -83 1 -14 10 -40 19 -58 9 -17
14 -37 10 -43 -4 -6 -3 -8 4 -4 6 3 16 -7 23 -23 14 -31 45 -51 79 -51 10 0
21 -4 25 -10 3 -5 13 -6 21 -3 9 3 20 0 25 -8 5 -8 9 -9 9 -4 0 6 37 10 93 9
62 -1 101 3 120 13 16 8 36 12 45 8 9 -3 13 -3 10 1 -6 6 55 54 68 54 9 0 30
24 37 43 4 11 12 15 18 11 7 -4 9 -3 5 4 -3 6 1 17 9 26 9 8 16 18 16 21 -1
19 13 64 18 61 3 -2 6 38 7 90 0 52 -1 94 -2 94 -2 0 -12 -10 -23 -22z"/>
<path d="M1940 2086 c0 -2 8 -10 18 -17 15 -13 16 -12 3 4 -13 16 -21 21 -21
13z"/>
<path d="M716 2053 c-6 -14 -5 -15 5 -6 7 7 10 15 7 18 -3 3 -9 -2 -12 -12z"/>
<path d="M3296 1913 c-6 -14 -5 -15 5 -6 7 7 10 15 7 18 -3 3 -9 -2 -12 -12z"/>
<path d="M2510 1719 c0 -5 5 -7 10 -4 6 3 10 8 10 11 0 2 -4 4 -10 4 -5 0 -10
-5 -10 -11z"/>
<path d="M3037 1682 c-5 -7 -13 -10 -18 -7 -5 4 -9 2 -9 -4 0 -14 -83 -72 -97
-67 -8 3 -10 -1 -6 -11 5 -13 2 -15 -11 -10 -9 4 -15 3 -12 -1 7 -12 -52 -44
-66 -36 -6 4 -8 3 -5 -3 4 -6 1 -16 -7 -22 -11 -9 -15 -9 -19 1 -4 9 -6 9 -6
-2 -1 -9 -18 -24 -38 -35 -21 -11 -60 -32 -87 -48 -27 -16 -58 -29 -67 -30
-10 -1 -21 -7 -23 -14 -3 -7 -11 -13 -19 -13 -7 0 -32 -9 -55 -20 -24 -12 -47
-18 -51 -15 -5 3 -11 1 -13 -4 -1 -6 -34 -22 -71 -36 -41 -15 -65 -20 -61 -13
4 7 -1 6 -12 -3 -10 -9 -29 -15 -41 -14 -13 1 -23 -3 -23 -8 0 -5 -11 -7 -25
-5 -13 3 -22 1 -19 -3 3 -5 -5 -10 -18 -10 -13 -1 -32 -3 -43 -5 -11 -2 -33
-5 -50 -6 -16 -2 -33 -7 -36 -12 -4 -4 -17 -3 -29 4 -12 7 -20 8 -16 2 3 -6
-11 -12 -34 -14 -22 -2 -40 0 -40 5 0 4 -5 5 -10 2 -19 -12 -69 -14 -76 -4 -4
6 -11 6 -20 -2 -8 -6 -14 -8 -14 -3 0 5 -28 7 -61 6 -49 -3 -60 -1 -53 10 6
10 5 10 -9 -1 -9 -7 -17 -10 -17 -5 0 5 -15 10 -33 10 -17 1 -43 5 -57 8 -14
3 -41 8 -60 12 l-35 5 25 -21 c14 -12 35 -30 47 -40 12 -10 31 -23 42 -30 13
-6 19 -16 15 -23 -4 -7 -4 -9 1 -5 4 4 35 -12 69 -36 34 -24 79 -46 101 -51
46 -8 105 -17 123 -18 6 0 12 -3 12 -6 0 -3 17 -7 38 -8 20 0 46 -3 57 -6 11
-3 37 -6 58 -6 28 -1 36 -4 31 -13 -5 -9 -2 -9 9 1 10 7 17 9 17 3 0 -6 13 -8
29 -6 22 4 30 1 34 -13 4 -17 5 -17 6 1 1 17 2 18 27 1 15 -9 23 -12 19 -5 -7
11 11 10 120 -7 22 -3 55 -5 73 -5 17 1 32 -3 32 -9 0 -6 6 -7 12 -3 18 11 82
4 90 -9 4 -7 8 -8 8 -2 0 8 68 12 90 5 8 -3 170 -1 224 3 51 3 69 17 88 69 5
16 14 25 19 22 5 -3 6 1 3 9 -3 8 1 21 8 28 7 8 13 20 14 27 2 29 5 33 14 27
6 -3 7 1 4 10 -4 8 -2 21 4 28 5 6 15 29 21 50 7 20 17 37 22 37 6 0 8 4 5 9
-3 5 0 24 8 42 7 19 12 43 10 54 -2 11 -4 54 -6 96 -2 43 -6 75 -10 72 -5 -2
-8 3 -8 11 0 9 5 16 11 16 6 0 3 7 -6 17 -12 11 -15 25 -11 45 3 17 2 27 -3
23 -6 -3 -11 7 -13 22 -2 19 -6 24 -11 15z"/>
<path d="M3773 1635 c0 -8 4 -12 9 -9 5 3 6 10 3 15 -9 13 -12 11 -12 -6z"/>
<path d="M2796 1602 c-3 -5 1 -9 9 -9 8 0 12 4 9 9 -3 4 -7 8 -9 8 -2 0 -6 -4
-9 -8z"/>
<path d="M2276 1518 c3 -5 10 -6 15 -3 13 9 11 12 -6 12 -8 0 -12 -4 -9 -9z"/>
<path d="M1116 1487 c3 -10 9 -15 12 -12 3 3 0 11 -7 18 -10 9 -11 8 -5 -6z"/>
<path d="M495 1250 c-3 -6 -18 -7 -32 -4 -26 7 -26 7 -19 -42 4 -27 8 -58 9
-69 1 -11 4 -22 7 -25 8 -8 52 -134 53 -152 1 -9 3 -15 6 -13 7 8 51 -76 45
-86 -3 -5 -1 -8 4 -7 13 4 92 -103 85 -115 -3 -6 -1 -7 4 -4 6 4 29 -14 51
-38 22 -25 46 -45 51 -45 6 0 16 -9 23 -20 7 -11 19 -20 26 -20 7 0 10 -5 6
-12 -4 -6 -3 -8 4 -4 6 3 17 -1 25 -9 9 -8 19 -15 22 -15 4 0 19 -8 33 -18 15
-10 52 -28 82 -41 124 -53 177 -67 295 -77 72 -7 100 -18 88 -37 -3 -5 -1 -7
5 -3 9 5 72 -38 80 -56 2 -5 9 -8 16 -8 7 0 21 -8 32 -18 10 -9 42 -28 69 -42
28 -14 53 -29 56 -33 3 -5 9 -8 13 -8 22 3 36 0 32 -8 -3 -5 0 -9 7 -8 39 1
67 -4 63 -12 -4 -5 3 -7 14 -4 11 3 20 1 20 -3 0 -5 12 -9 28 -10 15 0 43 -4
62 -8 52 -12 305 -8 305 4 0 1 9 3 20 4 11 2 47 11 80 21 33 10 67 19 75 20 8
0 33 12 55 26 22 13 54 31 70 39 17 8 35 22 41 30 7 8 21 26 33 39 12 13 20
25 18 27 -1 2 -49 4 -105 5 -60 1 -102 6 -102 11 0 7 -5 6 -13 -1 -8 -6 -16
-8 -19 -6 -3 3 -27 7 -54 9 -27 2 -67 7 -89 12 -49 10 -54 11 -83 12 -16 2
-21 6 -16 15 6 9 5 9 -8 0 -8 -7 -17 -10 -20 -7 -4 3 -21 8 -40 11 -18 2 -34
8 -36 13 -2 4 -12 5 -24 2 -13 -3 -19 -1 -15 5 5 7 -1 9 -15 5 -11 -3 -19 -1
-16 4 3 5 -12 10 -35 11 -22 2 -45 7 -51 13 -5 5 -18 10 -28 10 -10 0 -18 4
-18 8 0 4 -10 8 -22 8 -13 1 -41 9 -63 19 -22 10 -44 19 -50 20 -5 2 -39 16
-75 32 -36 16 -80 35 -97 42 -18 8 -33 18 -33 23 0 5 -4 7 -8 4 -12 -7 -63 29
-55 39 5 4 2 5 -5 1 -17 -10 -174 83 -165 97 3 6 1 7 -5 3 -6 -3 -18 1 -26 10
-9 8 -16 12 -16 9 0 -8 -93 65 -98 77 -2 5 -11 8 -19 8 -9 0 -13 6 -10 14 4 9
1 13 -6 10 -14 -5 -173 142 -169 157 1 6 -1 9 -5 6 -8 -4 -88 74 -83 81 1 2
-2 7 -6 10 -4 4 -4 1 0 -5 5 -9 0 -13 -13 -13 -12 0 -21 5 -21 11 0 5 -4 8
-10 4 -11 -7 -61 5 -56 14 2 3 -10 7 -27 7 -59 3 -131 29 -122 44 3 5 4 10 1
10 -3 0 -8 -5 -11 -10z"/>
<path d="M1025 1052 c33 -32 63 -57 66 -55 4 1 15 -8 25 -22 10 -13 21 -22 25
-20 4 3 13 -3 20 -12 12 -14 12 -16 0 -8 -9 5 -12 4 -7 -3 4 -6 12 -9 19 -7
17 6 50 -21 42 -34 -3 -7 0 -8 9 -5 15 6 61 -23 63 -39 1 -5 5 -12 9 -15 4 -4
4 -1 0 6 -10 18 7 15 30 -5 11 -10 24 -19 29 -20 23 -4 94 -50 88 -57 -4 -4 0
-4 10 0 10 3 17 1 17 -6 0 -6 5 -8 10 -5 6 3 10 1 10 -4 0 -6 3 -10 8 -10 20
3 32 -2 26 -13 -4 -6 -3 -8 4 -5 5 4 18 4 27 1 11 -5 13 -9 5 -14 -6 -4 3 -7
19 -7 17 0 39 -7 48 -15 10 -8 24 -13 32 -10 9 3 11 0 6 -8 -5 -8 -4 -11 2 -7
16 10 74 -13 66 -26 -3 -6 -1 -7 5 -3 14 9 63 -4 57 -14 -3 -5 4 -6 15 -3 11
3 20 1 20 -5 0 -5 8 -9 18 -9 24 2 122 -25 122 -33 0 -4 10 -6 23 -6 14 1 21
-4 19 -13 -2 -11 0 -12 11 -2 10 7 23 8 38 3 13 -5 30 -7 36 -5 7 3 13 1 13
-4 0 -4 10 -8 23 -9 57 -2 143 -17 156 -28 12 -8 13 -8 7 2 -6 10 0 11 26 7
42 -8 239 -8 298 0 25 4 48 12 52 18 9 15 25 38 61 88 15 21 27 43 27 49 0 5
4 10 9 10 5 0 11 9 14 21 4 13 10 18 18 13 7 -4 10 -3 6 4 -10 15 3 43 17 35
6 -3 8 -3 4 2 -4 4 4 27 17 52 14 24 25 45 25 46 0 2 -39 2 -87 1 -49 -1 -93
3 -100 8 -6 5 -14 5 -17 0 -3 -5 -20 -7 -38 -6 -18 1 -61 3 -96 3 -43 1 -61 4
-56 12 5 8 1 8 -13 0 -11 -6 -22 -9 -24 -7 -2 2 -35 6 -74 10 -147 14 -210 21
-210 26 0 0 -21 3 -48 5 -26 2 -55 9 -66 14 -11 6 -22 6 -27 1 -6 -6 -20 -4
-37 5 -15 8 -25 10 -22 5 3 -5 -7 -5 -25 0 -37 11 -32 10 -76 10 -19 0 -33 3
-30 8 2 4 -8 8 -22 8 -77 3 -83 4 -76 17 6 9 5 9 -8 0 -8 -7 -17 -11 -19 -8
-4 4 -79 18 -159 31 -19 3 -48 9 -64 15 -16 5 -42 9 -57 9 -16 0 -29 5 -29 11
0 5 -4 8 -9 5 -16 -10 -71 6 -64 18 4 8 3 8 -6 0 -13 -12 -54 -7 -46 5 2 4
-10 5 -27 3 -17 -3 -28 -1 -25 4 2 5 -15 10 -40 11 -25 1 -51 7 -57 13 -7 5
-15 8 -18 5 -3 -3 -34 1 -69 9 l-64 15 60 -57z"/>
<path d="M1730 1040 c0 -5 5 -10 11 -10 5 0 7 5 4 10 -3 6 -8 10 -11 10 -2 0
-4 -4 -4 -10z"/>
<path d="M995 971 c-3 -5 -2 -12 3 -15 5 -3 9 1 9 9 0 17 -3 19 -12 6z"/>
<path d="M2259 953 c-13 -17 -13 -17 6 -3 11 8 22 16 24 17 2 2 0 3 -6 3 -6 0
-17 -8 -24 -17z"/>
<path d="M3016 947 c3 -10 9 -15 12 -12 3 3 0 11 -7 18 -10 9 -11 8 -5 -6z"/>
<path d="M1595 671 c-3 -5 -2 -12 3 -15 5 -3 9 1 9 9 0 17 -3 19 -12 6z"/>
</g>
</svg>
