<?xml version="1.0" standalone="no"?>
<!DOCTYPE svg PUBLIC "-//W3C//DTD SVG 20010904//EN"
 "http://www.w3.org/TR/2001/REC-SVG-20010904/DTD/svg10.dtd">
<svg version="1.0" xmlns="http://www.w3.org/2000/svg"
 width="448.000000pt" height="448.000000pt" viewBox="0 0 448.000000 448.000000"
 preserveAspectRatio="xMidYMid meet">
<metadata>
Created by potrace 1.14, written by Peter Selinger 2001-2017
</metadata>
<g transform="translate(0.000000,448.000000) scale(0.100000,-0.100000)"
fill="#000000" stroke="none">
<path d="M2085 4244 c-216 -32 -386 -107 -560 -245 -66 -52 -80 -59 -108 -55
-83 14 -102 13 -158 -5 -277 -91 -525 -302 -653 -557 -50 -100 -97 -253 -111
-367 -4 -27 -15 -59 -25 -70 -38 -43 -104 -152 -141 -229 -173 -370 -129 -812
114 -1143 35 -46 46 -72 52 -114 11 -86 45 -207 86 -302 38 -89 134 -247 150
-247 5 0 9 -5 9 -12 0 -20 146 -156 231 -214 152 -104 324 -171 489 -189 31
-4 64 -14 75 -24 35 -31 138 -97 203 -130 67 -34 215 -85 273 -95 19 -3 45 -8
59 -11 52 -12 241 -12 321 0 211 32 393 106 482 198 37 37 58 51 86 54 42 5
134 20 174 28 16 3 63 17 105 31 396 133 696 500 748 914 3 30 14 64 24 75
112 129 220 384 238 560 10 101 6 281 -8 345 -43 193 -123 374 -198 446 -41
40 -44 45 -57 135 -30 192 -84 334 -187 486 -174 259 -473 443 -778 478 -30 4
-64 15 -75 24 -35 32 -138 97 -203 130 -68 34 -216 86 -272 95 -19 3 -46 8
-60 11 -50 12 -247 11 -325 -1z m313 -38 c190 -30 333 -94 537 -240 11 -8 44
-17 73 -20 363 -42 710 -302 855 -641 51 -118 72 -202 91 -355 5 -37 15 -53
54 -91 73 -69 162 -265 187 -406 40 -237 20 -431 -66 -638 -30 -72 -106 -200
-154 -257 -15 -17 -24 -46 -29 -87 -54 -472 -451 -872 -931 -936 -99 -13 -121
-18 -132 -27 -7 -6 -10 -14 -7 -19 3 -5 0 -9 -5 -9 -6 0 -21 -11 -33 -25 -52
-60 -243 -142 -393 -170 -115 -22 -277 -26 -365 -10 -188 34 -328 92 -472 195
-46 33 -94 60 -108 61 -69 2 -191 32 -289 71 -264 104 -491 326 -601 590 -21
51 -41 105 -44 118 -17 77 -27 130 -32 173 -5 38 -18 64 -58 117 -108 145
-185 337 -203 510 -31 288 35 535 203 770 38 53 62 96 61 111 -3 79 44 243
105 364 120 239 326 427 581 528 78 31 100 34 184 23 l62 -8 79 65 c129 104
239 163 392 208 63 19 84 23 180 38 52 8 216 6 278 -3z"/>
<path d="M2207 4074 c-1 -1 -31 -4 -67 -8 -123 -11 -263 -57 -375 -123 -75
-44 -137 -92 -130 -102 2 -5 25 -11 50 -14 61 -9 150 -29 380 -88 603 -153
1226 -418 1647 -701 48 -32 89 -58 91 -58 8 0 -20 127 -43 195 -72 217 -233
409 -440 523 -70 39 -209 87 -280 98 -30 4 -58 9 -62 10 -5 1 -25 2 -45 3 -27
1 -49 10 -73 31 -139 121 -334 208 -505 225 -62 7 -145 11 -148 9z"/>
<path d="M1300 3761 c-156 -50 -349 -194 -453 -337 -72 -101 -145 -272 -162
-382 -4 -26 2 -67 15 -118 19 -72 82 -251 100 -282 4 -9 21 16 47 70 39 79
112 191 178 273 55 67 189 193 275 258 210 157 429 259 715 331 l130 33 -45
13 c-154 42 -410 95 -646 135 -65 10 -132 13 -154 6z"/>
<path d="M2320 3514 c-8 -2 -37 -6 -63 -9 l-49 -6 104 -71 c166 -112 387 -299
479 -405 9 -10 25 -25 35 -35 10 -9 33 -33 49 -53 17 -20 35 -42 40 -49 148
-167 315 -452 400 -680 40 -110 95 -305 95 -341 0 -97 94 268 116 450 4 28 8
52 9 55 21 37 25 469 6 583 l-14 78 -61 36 c-197 117 -558 283 -850 391 -120
44 -164 56 -216 57 -36 0 -72 0 -80 -1z"/>
<path d="M1954 3446 c-320 -91 -626 -277 -820 -501 -70 -80 -151 -201 -190
-283 -29 -62 -64 -158 -64 -178 0 -26 114 -211 214 -348 l50 -69 13 86 c25
178 119 393 240 554 193 257 451 414 753 458 60 9 234 9 288 1 23 -4 42 -5 42
-2 0 10 -322 246 -335 246 -2 0 -26 14 -52 30 -26 17 -49 30 -52 29 -4 0 -43
-11 -87 -23z"/>
<path d="M2188 3060 c-26 -3 -50 -9 -53 -12 -4 -3 19 -15 49 -27 270 -101 480
-270 580 -468 102 -204 94 -471 -25 -748 -23 -53 -40 -98 -37 -100 6 -6 208
98 298 155 94 59 220 151 241 176 11 14 9 28 -15 98 -41 117 -154 346 -226
456 -77 117 -184 252 -276 346 -65 67 -73 72 -140 88 -148 36 -295 49 -396 36z"/>
<path d="M1845 2955 c-191 -99 -368 -283 -472 -490 -74 -146 -120 -331 -117
-463 2 -81 -7 -66 119 -200 49 -52 78 -73 160 -112 294 -141 608 -163 950 -67
42 12 54 23 79 68 15 28 25 53 23 56 -3 2 -20 -3 -37 -12 -65 -34 -208 -62
-299 -60 -355 8 -625 261 -625 585 1 318 284 569 632 559 40 -1 75 1 79 4 15
16 -357 167 -412 167 -7 0 -43 -16 -80 -35z"/>
<path d="M3657 2928 c9 -39 11 -379 2 -458 -17 -150 -20 -176 -36 -260 -8 -47
-17 -96 -20 -110 -2 -14 -15 -69 -29 -122 -110 -437 -287 -845 -511 -1182 -40
-59 -73 -112 -73 -116 0 -4 19 -3 43 2 23 5 49 11 58 13 141 29 317 125 437
239 145 137 259 375 278 581 6 65 10 74 58 135 83 104 165 267 181 360 3 19 8
42 10 50 20 71 22 251 5 337 -20 100 -48 185 -87 263 -41 81 -98 136 -248 239
-64 45 -73 49 -68 29z"/>
<path d="M556 2748 c-107 -173 -147 -321 -142 -528 4 -145 6 -161 37 -260 41
-128 134 -291 189 -331 37 -27 377 -124 685 -195 133 -31 185 -42 275 -60 14
-3 43 -9 65 -14 22 -5 41 -8 42 -6 2 1 -27 27 -65 57 -157 127 -358 321 -494
479 -217 252 -398 555 -498 833 -19 53 -38 97 -42 97 -4 0 -27 -33 -52 -72z"/>
<path d="M2360 2691 c0 -5 8 -15 17 -22 28 -23 91 -127 108 -178 58 -176 28
-373 -74 -490 -12 -13 -21 -28 -21 -33 0 -4 -5 -8 -10 -8 -6 0 -21 -9 -33 -21
-51 -48 -163 -88 -265 -94 -30 -2 -56 -6 -59 -9 -3 -2 28 -15 68 -27 119 -36
260 -31 386 15 57 20 120 58 166 99 32 28 41 46 59 113 21 82 29 234 15 309
-15 89 -60 193 -110 256 -28 36 -247 116 -247 90z"/>
<path d="M2017 2666 c-53 -22 -98 -51 -155 -101 -31 -27 -65 -82 -57 -95 10
-17 129 -79 189 -99 76 -25 177 -22 231 7 47 25 70 44 108 90 l27 34 -22 40
c-13 22 -41 55 -63 73 -91 74 -167 89 -258 51z"/>
<path d="M1749 2368 c-5 -23 -9 -51 -13 -91 -9 -97 57 -277 109 -297 103 -39
305 -32 393 14 73 38 135 124 155 213 15 68 16 154 2 151 -5 0 -32 -18 -60
-39 -147 -110 -339 -99 -552 33 -18 11 -33 18 -34 16z"/>
<path d="M3172 1846 c-238 -172 -533 -307 -790 -361 -195 -40 -422 -40 -599 1
-36 8 -67 13 -69 11 -4 -4 189 -151 236 -180 22 -14 78 -27 180 -41 19 -3 82
-12 140 -20 58 -8 128 -18 155 -21 28 -4 60 -8 72 -10 12 -2 60 -7 105 -10 46
-4 94 -9 108 -11 44 -8 384 -12 425 -5 40 6 40 7 87 111 107 239 111 254 105
349 -4 47 -8 95 -10 106 -3 11 -10 50 -17 88 -7 37 -15 67 -19 67 -3 0 -52
-33 -109 -74z"/>
<path d="M680 1470 c0 -32 27 -136 52 -200 73 -186 193 -336 357 -444 121 -81
282 -139 423 -152 67 -6 77 -10 127 -51 283 -230 668 -280 997 -128 46 22 92
52 120 81 25 25 44 47 42 49 -2 1 -70 5 -153 8 -128 5 -187 12 -350 41 -46 9
-186 48 -273 76 -351 114 -669 304 -905 541 l-107 108 -143 41 c-197 58 -187
56 -187 30z"/>
<path d="M1250 1307 c98 -93 301 -230 465 -314 208 -107 471 -194 695 -229 19
-3 46 -8 60 -11 36 -7 348 -12 392 -6 31 4 44 14 71 52 48 66 167 263 167 276
0 6 -49 10 -138 10 -129 0 -326 10 -382 19 -14 2 -54 7 -90 11 -62 6 -84 8
-167 20 -21 3 -67 10 -103 15 -76 11 -134 20 -164 26 -11 2 -34 6 -51 9 -16 3
-43 7 -60 10 -16 3 -46 8 -65 11 -67 11 -426 85 -528 110 -138 32 -145 31
-102 -9z"/>
</g>
</svg>
